<svg id="svg" version="1.1" xmlns="http://www.w3.org/2000/svg" xmlns:xlink="http://www.w3.org/1999/xlink" width="400" height="400" viewBox="0, 0, 400,400"><g id="svgg"><path id="path0" d="M62.543 57.920 C 63.271 58.408,65.625 59.829,67.773 61.076 C 69.922 62.323,73.174 64.231,75.000 65.315 C 76.826 66.399,78.848 67.590,79.492 67.962 C 80.137 68.333,81.982 69.436,83.594 70.412 C 86.515 72.181,87.595 72.815,92.773 75.801 C 94.277 76.668,95.771 77.545,96.094 77.750 C 97.111 78.396,104.378 82.714,107.227 84.365 C 108.730 85.237,110.610 86.343,111.403 86.823 C 113.609 88.157,119.146 91.422,120.485 92.178 C 121.142 92.548,122.822 93.548,124.219 94.400 C 125.615 95.252,127.021 96.076,127.344 96.232 C 127.666 96.388,128.289 96.728,128.728 96.988 C 129.166 97.248,130.836 98.235,132.439 99.182 C 134.041 100.129,135.967 101.288,136.719 101.758 C 137.471 102.229,139.404 103.386,141.016 104.330 C 142.627 105.274,144.248 106.224,144.619 106.441 C 144.989 106.658,146.737 107.693,148.502 108.740 C 150.268 109.788,152.251 110.949,152.907 111.321 C 153.564 111.693,155.734 112.989,157.729 114.202 C 159.723 115.414,161.433 116.406,161.527 116.406 C 161.693 116.406,166.371 119.176,169.141 120.915 C 169.893 121.387,172.139 122.719,174.133 123.875 C 176.127 125.031,179.203 126.834,180.969 127.881 C 182.735 128.929,184.707 130.090,185.352 130.462 C 185.996 130.833,188.156 132.130,190.150 133.342 C 192.145 134.555,193.852 135.547,193.943 135.547 C 194.035 135.547,195.215 136.248,196.566 137.106 C 199.291 138.834,199.823 138.948,201.078 138.069 C 201.552 137.737,202.953 136.885,204.192 136.176 C 205.431 135.466,210.994 132.222,216.553 128.966 C 222.112 125.711,226.723 123.047,226.799 123.047 C 226.876 123.047,227.900 122.432,229.075 121.680 C 230.251 120.928,231.305 120.312,231.419 120.313 C 231.533 120.313,232.587 119.697,233.763 118.945 C 234.938 118.193,236.000 117.578,236.122 117.578 C 236.244 117.578,237.087 117.109,237.996 116.535 C 238.905 115.961,240.615 114.970,241.797 114.332 C 242.979 113.694,244.209 112.971,244.531 112.726 C 244.854 112.481,245.908 111.864,246.875 111.355 C 247.842 110.847,248.910 110.193,249.250 109.903 C 249.589 109.613,249.987 109.375,250.135 109.375 C 250.283 109.375,251.763 108.566,253.425 107.577 C 256.829 105.550,259.406 104.039,263.672 101.569 C 265.283 100.636,267.393 99.403,268.359 98.828 C 269.326 98.254,271.436 97.023,273.047 96.094 C 274.658 95.164,276.768 93.934,277.734 93.359 C 278.701 92.785,280.723 91.601,282.227 90.729 C 283.730 89.858,288.037 87.346,291.797 85.149 C 295.557 82.952,299.424 80.711,300.391 80.170 C 301.357 79.628,302.615 78.859,303.185 78.460 C 303.756 78.061,304.335 77.734,304.474 77.734 C 304.612 77.734,305.687 77.119,306.862 76.367 C 308.038 75.615,309.092 75.000,309.206 75.000 C 309.320 75.000,310.374 74.385,311.550 73.633 C 312.725 72.881,313.780 72.266,313.894 72.266 C 314.007 72.266,315.062 71.650,316.237 70.898 C 317.413 70.146,318.467 69.531,318.581 69.531 C 318.695 69.531,319.749 68.916,320.925 68.164 C 322.100 67.412,323.155 66.797,323.269 66.797 C 323.382 66.797,324.437 66.182,325.612 65.430 C 326.788 64.678,327.842 64.063,327.956 64.063 C 328.070 64.063,329.124 63.447,330.300 62.695 C 331.475 61.943,332.520 61.328,332.622 61.328 C 332.724 61.328,334.078 60.537,335.632 59.570 C 339.290 57.294,339.020 57.334,330.243 60.368 C 326.178 61.774,321.357 63.430,319.531 64.049 C 317.705 64.667,312.080 66.609,307.031 68.364 C 301.982 70.119,296.357 72.056,294.531 72.670 C 292.705 73.283,287.080 75.218,282.031 76.969 C 276.982 78.720,271.357 80.650,269.531 81.258 C 267.705 81.865,263.398 83.331,259.961 84.514 C 249.141 88.238,241.042 91.018,234.180 93.363 C 230.527 94.610,223.672 96.971,218.945 98.608 C 214.219 100.245,207.940 102.395,204.992 103.385 L 199.633 105.184 196.594 104.186 C 194.922 103.636,191.006 102.281,187.891 101.174 C 184.775 100.068,181.260 98.836,180.078 98.438 C 177.307 97.504,165.080 93.211,157.813 90.619 C 150.422 87.984,137.106 83.323,134.375 82.415 C 132.189 81.688,128.864 80.525,118.750 76.947 C 115.635 75.845,112.119 74.617,110.938 74.219 C 108.166 73.286,95.939 68.992,88.672 66.401 C 75.479 61.696,61.928 57.031,61.457 57.031 C 61.326 57.031,61.815 57.431,62.543 57.920 M53.839 73.288 C 53.479 73.395,52.864 73.956,52.471 74.535 C 51.489 75.982,51.559 273.731,52.542 274.414 C 52.851 274.629,54.471 275.645,56.142 276.673 C 57.813 277.700,60.938 279.644,63.086 280.992 C 65.234 282.340,67.256 283.568,67.578 283.720 C 67.900 283.872,68.955 284.512,69.922 285.140 C 70.889 285.769,72.618 286.843,73.765 287.526 C 74.912 288.209,78.741 290.592,82.276 292.822 C 85.810 295.051,88.767 296.875,88.848 296.875 C 88.928 296.875,90.811 298.013,93.032 299.404 C 95.253 300.795,98.709 302.948,100.712 304.189 C 102.715 305.430,105.088 306.905,105.985 307.466 C 115.609 313.487,118.444 315.234,118.588 315.234 C 118.681 315.234,120.206 316.169,121.976 317.311 C 125.260 319.428,126.870 320.433,129.297 321.877 C 130.049 322.325,131.839 323.430,133.276 324.334 C 134.712 325.237,137.349 326.880,139.135 327.984 C 140.921 329.089,143.965 330.973,145.898 332.171 C 147.832 333.370,151.216 335.455,153.418 336.804 C 155.620 338.154,158.345 339.833,159.473 340.536 C 163.076 342.783,165.249 342.933,167.325 341.078 C 169.064 339.525,169.057 339.613,169.356 313.802 L 169.642 289.149 168.708 288.654 C 168.194 288.382,165.840 286.895,163.477 285.349 C 161.113 283.803,158.125 281.867,156.836 281.048 C 155.547 280.228,152.822 278.473,150.781 277.147 C 148.740 275.822,146.104 274.122,144.922 273.369 C 142.528 271.846,135.623 267.396,132.617 265.440 C 131.543 264.741,128.818 262.977,126.563 261.520 C 124.307 260.063,121.055 257.951,119.336 256.828 C 117.617 255.705,114.629 253.768,112.695 252.525 C 110.762 251.281,107.932 249.457,106.408 248.472 C 104.884 247.486,103.342 246.504,102.982 246.289 C 102.375 245.927,102.335 242.782,102.433 203.028 L 102.539 160.159 107.617 163.205 C 110.410 164.881,112.959 166.376,113.281 166.529 C 113.604 166.681,114.395 167.152,115.039 167.577 C 115.684 168.001,116.562 168.529,116.992 168.750 C 117.422 168.971,118.301 169.491,118.945 169.906 C 119.590 170.320,120.557 170.902,121.094 171.199 C 121.893 171.640,131.451 177.376,162.500 196.043 C 163.252 196.495,164.219 197.046,164.648 197.267 C 165.078 197.487,165.957 198.014,166.602 198.438 C 167.246 198.861,168.125 199.388,168.555 199.609 C 168.984 199.831,169.863 200.355,170.508 200.775 C 171.152 201.195,172.163 201.812,172.755 202.147 C 173.346 202.482,179.543 206.178,186.526 210.362 C 193.509 214.546,199.309 217.969,199.416 217.969 C 199.522 217.969,199.609 204.985,199.609 189.115 L 199.609 160.262 196.191 158.191 C 191.550 155.379,188.779 153.663,185.332 151.465 C 183.732 150.444,182.333 149.609,182.223 149.609 C 182.114 149.609,180.576 148.669,178.805 147.519 C 175.949 145.664,173.227 143.982,166.658 140.013 C 165.615 139.383,163.461 138.032,161.873 137.012 C 160.285 135.991,158.896 135.156,158.786 135.156 C 158.676 135.156,157.138 134.221,155.368 133.077 C 153.597 131.934,150.742 130.147,149.023 129.105 C 147.305 128.064,144.756 126.482,143.359 125.589 C 141.963 124.696,140.557 123.842,140.234 123.691 C 139.912 123.540,137.763 122.234,135.458 120.790 C 133.153 119.346,129.286 116.951,126.864 115.469 C 124.442 113.987,121.280 112.010,119.837 111.075 C 118.394 110.140,117.109 109.375,116.983 109.375 C 116.857 109.375,115.719 108.672,114.453 107.813 C 113.188 106.953,112.053 106.250,111.932 106.250 C 111.811 106.250,110.263 105.315,108.493 104.171 C 106.722 103.028,103.867 101.241,102.148 100.199 C 100.430 99.158,97.881 97.576,96.484 96.683 C 95.088 95.790,93.682 94.936,93.359 94.785 C 93.037 94.634,90.840 93.296,88.477 91.812 C 86.113 90.328,81.650 87.564,78.559 85.670 C 75.468 83.776,72.086 81.699,71.043 81.055 C 57.806 72.871,56.782 72.409,53.839 73.288 " stroke="none" fill="#fc1c44" fill-rule="evenodd"></path><path id="path1" d="M335.866 75.524 C 330.273 79.332,299.572 98.556,266.406 119.019 C 262.217 121.603,251.230 128.385,241.992 134.088 C 232.754 139.791,219.482 147.975,212.500 152.273 L 199.805 160.089 199.705 189.224 C 199.649 205.249,199.705 218.359,199.827 218.359 C 199.949 218.359,221.791 204.854,248.365 188.346 C 274.938 171.839,296.899 158.206,297.168 158.050 C 297.557 157.824,297.655 166.648,297.651 201.637 L 297.645 245.508 292.084 249.152 C 289.026 251.156,273.890 261.176,258.450 271.418 L 230.376 290.039 230.662 313.867 C 230.980 340.348,230.896 338.828,232.118 340.137 C 235.526 343.787,237.236 343.347,249.126 335.759 C 257.063 330.694,274.545 319.679,277.280 318.020 C 278.211 317.455,280.672 315.913,282.748 314.595 C 286.616 312.139,343.585 276.623,346.147 275.071 C 348.171 273.844,348.036 280.921,348.038 175.781 L 348.039 79.102 347.122 77.132 C 344.789 72.122,341.544 71.658,335.866 75.524 " stroke="none" fill="#bc1c3c" fill-rule="evenodd"></path><path id="path2" d="" stroke="none" fill="#1002040" fill-rule="evenodd"></path><path id="path3" d="" stroke="none" fill="#1002040" fill-rule="evenodd"></path><path id="path4" d="" stroke="none" fill="#1002040" fill-rule="evenodd"></path></g></svg>