<?xml version="1.0" standalone="no"?>
<!DOCTYPE svg PUBLIC "-//W3C//DTD SVG 20010904//EN"
 "http://www.w3.org/TR/2001/REC-SVG-20010904/DTD/svg10.dtd">
<svg version="1.0" xmlns="http://www.w3.org/2000/svg"
 width="200.000000pt" height="200.000000pt" viewBox="0 0 200.000000 200.000000"
 preserveAspectRatio="xMidYMid meet">

<g transform="translate(0.000000,200.000000) scale(0.100000,-0.100000)"
fill="#000000" stroke="none">
<path d="M996 1923 c-13 -14 -540 -291 -546 -288 -3 2 -19 44 -35 94 l-28 90
-50 20 c-27 12 -53 21 -56 21 -4 0 -22 -31 -40 -68 l-33 -69 26 -85 c14 -47
26 -95 26 -106 0 -12 -16 -30 -40 -46 l-40 -26 2 -493 3 -492 390 -207 c326
-174 396 -208 426 -206 24 2 161 69 422 208 l387 205 0 506 0 507 -202 110
c-112 61 -293 161 -402 221 -110 61 -200 111 -201 111 -1 0 -5 -3 -9 -7z m481
-318 c133 -71 239 -133 235 -137 -4 -3 -37 -23 -74 -43 l-68 -37 -117 63
c-126 67 -173 96 -172 107 1 4 1 26 0 48 -1 35 -5 42 -23 46 -13 3 -79 20
-146 37 l-124 33 -121 -27 c-67 -15 -130 -29 -139 -32 -14 -3 -18 -15 -18 -46
0 -75 -4 -80 -106 -125 -53 -23 -99 -40 -103 -38 -13 8 -36 119 -26 123 6 2
127 66 269 142 l260 140 116 -62 c63 -34 224 -120 357 -192z m-1103 163 c-1
-13 5 -27 12 -31 17 -10 1 -47 -20 -47 -18 0 -29 -27 -13 -33 7 -2 12 -17 12
-33 0 -23 5 -29 23 -30 16 -1 21 3 18 12 -3 8 -1 14 5 14 6 0 9 -8 7 -17 -2
-10 -10 -18 -18 -18 -8 0 -16 -10 -18 -22 -4 -26 15 -31 24 -8 7 16 34 21 34
6 0 -22 -13 -39 -25 -35 -16 7 -29 -26 -15 -40 7 -7 14 -4 23 9 8 10 19 15 26
11 9 -6 9 -11 0 -22 -6 -7 -15 -11 -20 -8 -5 3 -14 -6 -20 -20 -15 -32 -43
-24 -34 11 4 16 1 25 -10 29 -10 4 -13 14 -9 29 4 15 0 24 -11 28 -12 5 -14
11 -5 26 12 24 -5 40 -23 22 -9 -9 -8 -16 1 -31 6 -10 9 -27 5 -36 -4 -10 0
-20 10 -26 19 -10 21 -17 8 -37 -13 -20 -41 3 -34 28 3 10 0 22 -6 25 -8 5 -8
13 -1 27 6 10 7 19 3 19 -4 0 -14 4 -22 9 -20 13 3 52 26 44 13 -5 15 -2 10
11 -4 10 -3 15 3 11 6 -3 10 -1 10 4 0 17 -27 13 -34 -4 -3 -8 -13 -15 -22
-15 -13 0 -15 6 -10 30 4 22 2 30 -9 30 -19 0 -19 10 -1 52 8 18 19 45 25 60
l10 27 43 -19 c33 -15 43 -25 42 -42z m30 -96 c2 -4 1 -14 -4 -22 -7 -11 -11
-11 -24 -1 -9 8 -16 17 -16 22 0 11 37 12 44 1z m719 -23 c59 -18 106 -34 104
-36 -3 -2 -53 10 -112 27 -60 16 -114 30 -122 30 -10 0 -13 -19 -13 -74 l0
-74 -42 -14 c-39 -13 -43 -18 -46 -51 -3 -36 -4 -37 -43 -37 -38 0 -39 1 -39
35 0 28 -4 35 -19 35 -45 0 -51 9 -51 76 0 44 4 64 13 65 6 0 57 11 112 24 55
13 111 24 125 24 14 1 74 -13 133 -30z m-413 -184 c0 -27 -9 -29 -65 -16 l-30
7 35 16 c49 23 60 22 60 -7z m17 -17 c-3 -7 -5 -2 -5 12 0 14 2 19 5 13 2 -7
2 -19 0 -25z m-448 -101 c-11 -29 -25 -61 -29 -72 -6 -13 -9 11 -9 69 -1 73 2
91 17 102 15 11 19 9 30 -17 11 -26 9 -37 -9 -82z m81 99 c0 -2 -3 -11 -6 -20
-9 -23 -24 -20 -24 4 0 11 7 20 15 20 8 0 15 -2 15 -4z m310 -16 c20 -5 26
-14 28 -43 4 -41 0 -42 -70 -31 -37 6 -38 8 -38 50 0 49 -7 47 80 24z m125
-40 c-4 -23 -2 -41 4 -45 7 -4 11 4 11 20 0 21 4 26 16 21 9 -3 27 -6 40 -6
15 0 24 -6 24 -15 0 -10 -10 -15 -27 -15 -16 0 -23 -4 -17 -8 6 -4 13 -22 16
-39 l5 -33 -64 0 -63 0 0 78 c0 43 2 81 5 84 3 3 17 3 31 0 23 -4 25 -8 19
-42z m185 -41 l0 -90 -37 3 -38 3 2 75 c1 41 2 81 2 88 1 7 15 12 36 12 l35 0
0 -91z m780 -154 l0 -245 -72 -37 c-40 -21 -76 -39 -81 -41 -4 -2 -6 106 -5
240 l3 243 75 41 c41 23 76 42 78 43 1 1 2 -109 2 -244z m-1330 223 c0 -23
-16 -39 -33 -32 -13 5 -14 10 -6 25 11 21 39 26 39 7z m905 -10 c25 -7 45 -15
45 -18 0 -3 -48 -26 -106 -52 l-106 -47 -40 20 c-22 11 -37 23 -33 27 7 7 175
80 187 81 4 1 28 -4 53 -11z m-758 -14 c1 -5 -2 -16 -7 -24 -12 -20 -35 2 -26
25 6 17 27 16 33 -1z m-47 -28 c0 -6 -4 -17 -9 -25 -15 -24 -44 5 -31 30 11
19 40 16 40 -5z m-50 -25 c0 -4 -6 -16 -14 -27 -14 -18 -15 -18 -21 -1 -10 24
1 48 20 41 8 -3 15 -9 15 -13z m207 -24 c-6 -20 -110 -49 -142 -40 -42 12 -40
38 3 38 20 0 37 6 42 16 8 14 16 15 55 6 25 -6 44 -15 42 -20z m-260 -3 c5
-17 -15 -37 -31 -31 -14 5 -15 11 -6 27 11 21 31 23 37 4z m-53 -22 c3 -5 3
-18 -1 -30 -4 -17 -9 -20 -23 -12 -12 6 -16 17 -13 30 5 20 27 27 37 12z m956
-9 c-28 -4 -44 -15 -78 -58 -25 -31 -41 -59 -36 -66 4 -7 2 -10 -7 -7 -18 6
-18 44 -1 40 8 -1 11 2 7 8 -4 6 8 28 27 50 30 34 38 38 78 37 39 0 40 -1 10
-4z m-802 -19 c14 -5 12 -8 -12 -21 -17 -9 -32 -11 -37 -6 -14 14 0 43 17 37
8 -2 22 -7 32 -10z m-201 -9 c5 -17 -14 -38 -30 -32 -20 8 -10 49 11 45 8 -2
17 -7 19 -13z m460 -67 c-2 -13 -4 -3 -4 22 0 25 2 35 4 23 2 -13 2 -33 0 -45z
m621 -20 l-3 -83 -42 -3 -43 -3 0 -74 c0 -41 4 -76 8 -79 19 -12 52 7 52 29 0
13 7 25 15 29 13 5 15 -12 15 -115 l0 -119 -52 30 c-29 17 -68 39 -85 47 l-33
17 0 154 0 155 33 43 c28 37 38 43 77 47 25 2 49 4 53 5 4 1 7 -35 5 -80z
m-959 63 c16 -10 6 -31 -14 -31 -17 0 -28 17 -20 30 8 12 16 12 34 1z m-166
-42 c20 -9 27 -25 42 -96 15 -70 22 -87 41 -95 13 -6 24 -18 25 -27 1 -9 2
-23 3 -31 2 -8 3 -92 4 -186 l2 -171 25 -11 c24 -11 25 -16 25 -92 0 -44 -3
-80 -6 -80 -4 0 -51 23 -105 52 l-99 52 0 348 c0 214 4 348 10 348 5 0 20 -5
33 -11z m212 -40 c7 -42 -8 -78 -18 -43 -17 61 -18 84 -4 84 10 0 18 -14 22
-41z m-87 21 c6 0 12 -6 12 -14 0 -18 -62 -6 -68 13 -3 10 2 12 19 8 13 -4 30
-7 37 -7z m392 -114 c0 -101 10 -126 52 -126 12 0 19 -2 16 -5 -3 -3 -24 -3
-47 1 l-41 7 0 108 c0 66 4 109 10 109 6 0 10 -38 10 -94z m-373 64 c2 0 3 -9
3 -20 0 -17 -4 -19 -27 -14 -39 9 -43 13 -43 34 0 16 4 17 32 9 18 -5 34 -9
35 -9z m403 -5 c0 -20 5 -25 25 -25 23 0 25 -3 25 -50 0 -48 1 -51 30 -56 17
-4 27 -11 23 -17 -3 -5 2 -16 12 -24 11 -7 14 -13 7 -13 -6 0 -17 8 -24 18 -7
11 -23 24 -35 31 -19 9 -23 20 -23 56 0 38 -3 45 -20 45 -10 0 -24 9 -30 19
-13 25 -13 41 0 41 6 0 10 -11 10 -25z m-401 -51 c13 -4 13 -7 0 -19 -19 -19
-59 -8 -59 15 0 18 12 18 59 4z m107 -20 c-4 -12 -10 -14 -17 -7 -5 5 -7 17
-3 27 4 12 10 14 17 7 5 -5 7 -17 3 -27z m-44 0 c12 -12 -5 -44 -24 -44 -14 0
-18 5 -14 16 3 9 6 20 6 25 0 10 23 12 32 3z m511 -121 c-7 -2 -19 -2 -25 0
-7 3 -2 5 12 5 14 0 19 -2 13 -5z m-90 -10 c-7 -2 -19 -2 -25 0 -7 3 -2 5 12
5 14 0 19 -2 13 -5z m134 1 c-3 -3 -12 -4 -19 -1 -8 3 -5 6 6 6 11 1 17 -2 13
-5z m-240 -24 c1 -11 -4 -20 -13 -20 -8 0 -14 9 -14 20 0 11 6 20 13 20 7 0
13 -9 14 -20z m156 13 c-7 -2 -19 -2 -25 0 -7 3 -2 5 12 5 14 0 19 -2 13 -5z
m134 1 c-3 -3 -12 -4 -19 -1 -8 3 -5 6 6 6 11 1 17 -2 13 -5z m-84 -11 c-7 -2
-19 -2 -25 0 -7 3 -2 5 12 5 14 0 19 -2 13 -5z m117 -8 c0 -9 -9 -15 -22 -14
-17 1 -19 2 -5 6 9 2 17 9 17 14 0 5 2 9 5 9 3 0 5 -7 5 -15z m-63 -1 c-3 -3
-12 -4 -19 -1 -8 3 -5 6 6 6 11 1 17 -2 13 -5z m691 -76 l-3 -83 -70 -37 c-38
-21 -74 -38 -78 -38 -4 0 -7 37 -5 82 l3 82 70 38 c39 21 74 38 78 38 4 0 7
-37 5 -82z m-811 19 c3 -3 -73 -176 -80 -184 -2 -1 -31 5 -65 14 -69 17 -67
17 -76 -14 -5 -16 -2 -23 11 -27 11 -3 8 -4 -7 -3 -39 3 -36 41 10 137 23 47
46 90 51 96 7 9 28 8 81 -2 39 -7 73 -15 75 -17z m813 -239 l0 -83 -357 -190
c-197 -104 -363 -191 -371 -193 -10 -3 -12 14 -10 79 l3 82 360 193 c198 106
363 193 368 193 4 1 7 -36 7 -81z m-1090 26 c0 -17 -6 -28 -20 -31 -25 -7 -26
-19 -2 -32 15 -9 15 -12 2 -21 -8 -5 -17 -9 -20 -7 -3 1 -27 13 -53 27 l-48
24 63 33 c35 17 66 32 71 33 4 0 7 -12 7 -26z m187 -16 c-3 -8 -6 -5 -6 6 -1
11 2 17 5 13 3 -3 4 -12 1 -19z m-114 -9 c7 0 3 -5 -8 -10 -14 -6 -8 -8 25 -4
31 3 37 2 20 -4 -23 -7 -21 -8 19 -15 32 -6 46 -5 52 5 7 11 9 9 9 -7 0 -20
-1 -21 -80 -5 -66 13 -80 19 -80 35 0 12 5 16 16 12 9 -3 21 -6 27 -7z m94
-25 c-3 -3 -12 -4 -19 -1 -8 3 -5 6 6 6 11 1 17 -2 13 -5z m-130 -36 c-3 -8
-6 -5 -6 6 -1 11 2 17 5 13 3 -3 4 -12 1 -19z m-41 -83 c88 -47 192 -102 232
-122 l72 -38 0 -82 c0 -46 -3 -83 -7 -83 -5 0 -111 56 -237 124 l-229 123 -1
82 c-1 44 2 81 5 81 4 0 78 -38 165 -85z m45 49 c17 -8 29 -18 26 -20 -3 -3
-20 4 -38 15 -40 25 -31 28 12 5z m137 -75 c-15 -9 -71 18 -63 31 3 5 21 2 40
-7 23 -11 31 -19 23 -24z m70 1 c12 0 13 -3 5 -8 -9 -6 -7 -12 7 -25 24 -20
40 -22 40 -4 0 20 43 37 64 25 9 -5 23 -6 29 -1 7 4 5 0 -5 -9 -10 -9 -24 -18
-31 -21 -6 -2 -9 -8 -5 -12 5 -5 19 -3 34 3 37 17 22 0 -20 -22 -36 -19 -36
-19 -86 4 -54 26 -83 50 -59 50 9 1 7 6 -6 17 -18 14 -18 15 -2 9 10 -3 26 -6
35 -6z m217 -10 c3 -6 -1 -7 -9 -4 -18 7 -21 14 -7 14 6 0 13 -4 16 -10z"/>
<path d="M1463 1517 c-18 -12 -33 -25 -33 -28 0 -13 29 -18 36 -7 5 7 2 8 -6
3 -8 -5 -11 -3 -8 6 3 8 10 13 15 12 5 -1 14 7 21 18 15 23 15 23 -25 -4z"/>
<path d="M316 1785 c-3 -9 0 -15 9 -15 16 0 20 16 6 24 -5 3 -11 -1 -15 -9z"/>
<path d="M283 1768 c4 -10 2 -18 -4 -18 -6 0 -7 -5 -3 -11 5 -8 10 -6 16 6 7
12 6 21 -2 28 -10 9 -12 8 -7 -5z"/>
<path d="M334 1736 c-8 -22 3 -33 18 -18 9 9 9 15 0 24 -9 9 -13 7 -18 -6z"/>
<path d="M294 1704 c3 -8 2 -12 -4 -9 -6 3 -10 1 -10 -4 0 -16 27 -13 33 3 6
15 -1 26 -16 26 -5 0 -6 -7 -3 -16z"/>
<path d="M1673 1132 l-53 -26 0 -103 0 -103 60 30 60 30 0 100 c0 55 -3 100
-7 99 -5 0 -32 -12 -60 -27z"/>
<path d="M318 941 l-58 -26 0 -200 0 -200 79 -42 c43 -24 81 -43 85 -43 3 0 6
27 6 60 0 55 -2 62 -25 72 l-25 11 -2 196 -3 197 -57 -25z"/>
<path d="M1385 456 l-340 -182 -3 -67 -3 -66 73 40 c40 22 198 106 351 186
l277 146 0 64 c0 34 -3 62 -7 62 -5 -1 -161 -83 -348 -183z"/>
<path d="M634 617 c-12 -7 -19 -17 -17 -24 3 -7 -9 -13 -29 -15 -32 -3 -33 -3
-10 -16 20 -12 26 -10 53 18 34 34 36 55 3 37z"/>
<path d="M512 444 l3 -66 100 -55 c55 -30 154 -83 220 -118 l120 -64 -1 66 -2
66 -138 74 c-77 41 -176 94 -222 119 l-83 45 3 -67z"/>
</g>
</svg>
